<svg width="177" height="174" viewBox="0 0 177 174" fill="none" xmlns="http://www.w3.org/2000/svg">
<path d="M117.673 96.2084L152.436 97.3139C159.806 97.5484 164.862 104.826 162.512 111.815L145.978 160.984C140.262 177.981 115.921 177.079 111.478 159.705L100.663 117.412C97.8579 106.443 106.358 95.8486 117.673 96.2084ZM68.479 115.788C78.0761 109.783 90.7524 114.659 93.8491 125.549L103.362 159.002C105.379 166.095 99.9828 173.125 92.6098 173.01L40.7417 172.204C22.8109 171.924 16.2716 148.46 31.4731 138.947L68.479 115.788ZM0.685043 74.7269C-4.03267 57.4258 16.6871 44.6199 30.0522 56.5765L62.5874 85.683C71.0252 93.2316 69.8654 106.764 60.2661 112.767L30.7768 131.207C24.5249 135.117 16.2726 131.889 14.3325 124.775L0.685043 74.7269ZM109.874 32.4633C112.545 25.7412 120.867 23.3829 126.667 27.7045L168.881 59.1556C183.2 69.823 174.924 92.5809 157.098 91.5599L111.493 88.9486C99.9132 88.2854 92.3832 76.4762 96.6665 65.6976L109.874 32.4633ZM79.0845 2.81385C94.2406 -6.62452 112.41 9.38454 104.956 25.6088L85.8833 67.1176C81.0408 77.6566 67.2992 80.3585 58.8266 72.4379L32.7016 48.015C27.4178 43.0748 28.2588 34.4671 34.3989 30.643L79.0845 2.81385Z" fill="url(#paint0_radial_177_49)"/>
<defs>
<radialGradient id="paint0_radial_177_49" cx="0" cy="0" r="1" gradientUnits="userSpaceOnUse" gradientTransform="translate(88.086 86.6234) rotate(90.1436) scale(95.4829 97.095)">
<stop stop-color="#2C62F8"/>
<stop offset="0.5" stop-color="#0041C3"/>
<stop offset="1" stop-color="#000B72"/>
</radialGradient>
</defs>
</svg>
